<svg width="140" height="32" viewBox="0 0 140 32" fill="none" xmlns="http://www.w3.org/2000/svg">
<path d="M30.6494 1C35.3181 3.71614 38.3535 8.12027 38.3535 13.0918C38.3533 21.3437 29.9915 30.9492 19.6768 30.9492C9.36201 30.9492 1.00024 21.3436 1 13.0918C1 8.1203 4.03542 3.71614 8.7041 1C5.17531 3.43917 2.94434 7.03523 2.94434 11.0449C2.94452 18.3923 10.436 24.3485 19.6768 24.3486C28.9177 24.3486 36.409 18.3924 36.4092 11.0449C36.4092 7.0351 34.1784 3.43917 30.6494 1Z" fill="white"/>
<circle cx="19.7281" cy="11.0447" r="7.36839" fill="white"/>
<path d="M139.826 22.5035H137.702V9.20322H139.826V22.5035Z" fill="white"/>
<path d="M132.573 9.20322V22.5035H130.449V16.7864H123.263V22.5035H121.139V9.20322H123.263V14.841H130.449V9.20322H132.573Z" fill="white"/>
<path d="M110.19 20.7765C112.275 20.7765 113.982 19.6648 114.577 17.4216L116.642 17.8583C115.907 20.975 113.327 22.7814 110.19 22.7814C106.319 22.7814 103.262 19.7442 103.262 15.8534C103.262 11.9824 106.319 8.92531 110.19 8.92531C113.327 8.92531 115.888 10.7516 116.642 13.6896L114.577 14.2851C113.982 12.0419 112.275 10.9303 110.19 10.9303C107.51 10.9303 105.406 13.0544 105.406 15.8534C105.406 18.6524 107.51 20.7765 110.19 20.7765Z" fill="white"/>
<path d="M100.589 22.5035H98.2866L96.9765 19.4067H90.505L89.1948 22.5035H86.8921L92.7482 9.20322H94.7333L100.589 22.5035ZM96.1427 17.4613L93.7407 11.8037L91.3387 17.4613H96.1427Z" fill="white"/>
<path d="M81.3722 15.6549V15.7343C82.6625 15.8732 83.8735 16.9849 83.8735 18.8509C83.8735 20.9948 82.4839 22.5035 79.665 22.5035H73.1935V9.20322H79.5261C81.9677 9.20322 83.4764 10.6524 83.4764 12.7963C83.4764 14.4836 82.3449 15.496 81.3722 15.6549ZM75.3176 11.0295V14.9601H79.2878C80.5583 14.9601 81.4119 14.1462 81.4119 12.9154C81.4119 11.7839 80.5385 11.0295 79.3077 11.0295H75.3176ZM75.3176 20.6772H79.4466C80.8759 20.6772 81.6898 19.8633 81.6898 18.6524C81.6898 17.4415 80.7965 16.6673 79.5062 16.6673H75.3176V20.6772Z" fill="white"/>
<path d="M68.0789 22.5035H65.9548V9.20322H68.0789V22.5035Z" fill="white"/>
<path d="M60.8258 9.20322V22.5035H58.7017V16.7864H51.5156V22.5035H49.3915V9.20322H51.5156V14.841H58.7017V9.20322H60.8258Z" fill="white"/>
</svg>
